<?xml version="1.0" encoding="UTF-8" standalone="no"?>
<!-- Created with Inkscape (http://www.inkscape.org/) -->

<svg
   xmlns:dc="http://purl.org/dc/elements/1.1/"
   xmlns:cc="http://creativecommons.org/ns#"
   xmlns:rdf="http://www.w3.org/1999/02/22-rdf-syntax-ns#"
   xmlns:svg="http://www.w3.org/2000/svg"
   xmlns="http://www.w3.org/2000/svg"
   xmlns:xlink="http://www.w3.org/1999/xlink"
   xmlns:sodipodi="http://sodipodi.sourceforge.net/DTD/sodipodi-0.dtd"
   xmlns:inkscape="http://www.inkscape.org/namespaces/inkscape"
   width="297mm"
   height="297mm"
   viewBox="0 0 1052.3622 1052.3622"
   id="svg2"
   version="1.1"
   inkscape:version="0.91 r13725"
   sodipodi:docname="tempate5.svg">
  <defs
     id="defs4">
    <clipPath
       clipPathUnits="userSpaceOnUse"
       id="clipPath4321">
      <rect
         y="386.86218"
         x="82"
         height="288"
         width="439.5"
         id="rect4323"
         style="fill:#ffffff;stroke:none;stroke-opacity:1" />
    </clipPath>
    <clipPath
       clipPathUnits="userSpaceOnUse"
       id="clipPath4193">
      <rect
         style="fill:#ffffff;stroke:none;stroke-opacity:1"
         id="rect4195"
         width="438"
         height="592"
         x="80"
         y="77.362206" />
    </clipPath>
    <clipPath
       clipPathUnits="userSpaceOnUse"
       id="clipPath4208">
      <rect
         style="fill:#ffffff;stroke:none;stroke-opacity:1"
         id="rect4210"
         width="444.06305"
         height="285.67114"
         x="524.67322"
         y="386.97473" />
    </clipPath>
    <clipPath
       clipPathUnits="userSpaceOnUse"
       id="clipPath4226">
      <rect
         style="fill:#ffffff;stroke:none;stroke-opacity:1"
         id="rect4228"
         width="225.56706"
         height="298.39905"
         x="521.1377"
         y="676.1814" />
    </clipPath>
    <clipPath
       clipPathUnits="userSpaceOnUse"
       id="clipPath4203">
      <rect
         style="fill:#ffffff;stroke:none;stroke-opacity:1"
         id="rect4205"
         width="318.73398"
         height="278.18781"
         x="374.23068"
         y="382.43726" />
    </clipPath>
    <clipPath
       clipPathUnits="userSpaceOnUse"
       id="clipPath4227">
      <rect
         y="0.001904797"
         x="0.0019031435"
         height="1052.3584"
         width="1052.3584"
         id="rect4229"
         style="fill:#ffffff;stroke:none;stroke-opacity:1" />
    </clipPath>
    <clipPath
       clipPathUnits="userSpaceOnUse"
       id="clipPath4239">
      <rect
         style="fill:#ffffff;stroke:none;stroke-opacity:1"
         id="rect4241"
         width="193.40067"
         height="289.1041"
         x="648.05554"
         y="383.58887" />
    </clipPath>
    <clipPath
       clipPathUnits="userSpaceOnUse"
       id="clipPath4248">
      <rect
         style="fill:#ffffff;stroke:none;stroke-opacity:1"
         id="rect4250"
         width="292"
         height="442"
         x="81"
         y="78.362213" />
    </clipPath>
    <clipPath
       clipPathUnits="userSpaceOnUse"
       id="clipPath4256">
      <rect
         style="fill:#ffffff;stroke:none;stroke-opacity:1"
         id="rect4258"
         width="298.39905"
         height="441.23465"
         x="670.33722"
         y="79.383278" />
    </clipPath>
    <clipPath
       clipPathUnits="userSpaceOnUse"
       id="clipPath4263">
      <rect
         style="fill:#ffffff;stroke:none;stroke-opacity:1"
         id="rect4265"
         width="294"
         height="447"
         x="79"
         y="526.36218" />
    </clipPath>
    <clipPath
       clipPathUnits="userSpaceOnUse"
       id="clipPath4271">
      <rect
         style="fill:#ffffff;stroke:none;stroke-opacity:1"
         id="rect4273"
         width="289"
         height="452"
         x="378"
         y="524.36218" />
    </clipPath>
    <clipPath
       clipPathUnits="userSpaceOnUse"
       id="clipPath4277">
      <rect
         style="fill:#ffffff;stroke:none;stroke-opacity:1"
         id="rect4279"
         width="306"
         height="454"
         x="669"
         y="526.36218" />
    </clipPath>
  </defs>
  <sodipodi:namedview
     id="base"
     pagecolor="#e5e5e5"
     bordercolor="#666666"
     borderopacity="1.0"
     inkscape:pageopacity="0"
     inkscape:pageshadow="2"
     inkscape:zoom="0.5"
     inkscape:cx="393.78617"
     inkscape:cy="392.3814"
     inkscape:document-units="px"
     inkscape:current-layer="layer1"
     showgrid="false"
     inkscape:window-width="1920"
     inkscape:window-height="1051"
     inkscape:window-x="1080"
     inkscape:window-y="420"
     inkscape:window-maximized="1"
     height="297mm"
     borderlayer="true"
     showguides="false">
    <sodipodi:guide
       position="91.001901,961.36029"
       orientation="870.35838,0"
       id="guide4200" />
    <sodipodi:guide
       position="91.001901,91.001895"
       orientation="0,870.35839"
       id="guide4202" />
    <sodipodi:guide
       position="961.36031,91.001895"
       orientation="-870.35838,0"
       id="guide4204" />
    <sodipodi:guide
       position="961.36031,961.36029"
       orientation="0,-870.35839"
       id="guide4206" />
  </sodipodi:namedview>
  <metadata
     id="metadata7">
    <rdf:RDF>
      <cc:Work
         rdf:about="">
        <dc:format>image/svg+xml</dc:format>
        <dc:type
           rdf:resource="http://purl.org/dc/dcmitype/StillImage" />
        <dc:title></dc:title>
      </cc:Work>
    </rdf:RDF>
  </metadata>
  <g
     inkscape:label="Layer 1"
     inkscape:groupmode="layer"
     id="layer1"
     transform="translate(0,-1.6535434e-6)">
    <image
       sodipodi:absref="/home/cliffe/Files/Projects/Photobook/photo5.jpg"
       xlink:href="photo5.jpg"
       clip-path="url(#clipPath4248)"
       width="562.43121"
       height="431.82669"
       preserveAspectRatio="none"
       id="image4282"
       x="-52.715607"
       y="87.85675" />
    <image
       sodipodi:absref="/home/cliffe/Files/Projects/Photobook/photo1.jpg"
       xlink:href="photo1.jpg"
       clip-path="url(#clipPath4256)"
       width="565.03845"
       height="433.82846"
       preserveAspectRatio="none"
       id="image4291"
       x="537.72461"
       y="84.472046" />
    <image
       sodipodi:absref="/home/cliffe/Files/Projects/Photobook/photo2.jpg"
       xlink:href="photo2.jpg"
       width="569.1756"
       height="437.00497"
       preserveAspectRatio="none"
       id="image4289"
       x="535.91223"
       y="530.59241"
       clip-path="url(#clipPath4277)" />
    <image
       sodipodi:absref="/home/cliffe/Files/Projects/Photobook/photo3.jpg"
       xlink:href="photo3.jpg"
       y="530.367"
       x="-54.761139"
       id="image4287"
       preserveAspectRatio="none"
       height="435.73553"
       width="567.52228"
       clip-path="url(#clipPath4263)" />
    <image
       sodipodi:absref="/home/cliffe/Files/Projects/Photobook/photo4.jpg"
       xlink:href="photo4.jpg"
       transform="matrix(1.5046484,0,0,1.5046484,-599.09577,-493.80418)"
       width="434.36798"
       height="333.50159"
       preserveAspectRatio="none"
       id="image4285"
       x="528.90112"
       y="362.11935"
       clip-path="url(#clipPath4239)" />
    <image
       sodipodi:absref="/home/cliffe/Files/Projects/Photobook/photo6.jpg"
       xlink:href="photo6.jpg"
       width="560.77863"
       height="430.55786"
       preserveAspectRatio="none"
       id="image4295"
       x="245.79179"
       y="534.68274"
       clip-path="url(#clipPath4271)" />
    <path
       style="fill:#ffffff"
       d="m -4233.7739,2112.8052 0,-2115.5224389 2644.4034,0 2644.4031,0 0,2115.5224389 0,2115.5224 -2644.4031,0 -2644.4034,0 0,-2115.5224 z m 352.5871,1892.4008 0,-129.4655 -129.4656,0 -129.4655,0 0,129.4655 0,129.4657 129.4655,0 129.4656,0 0,-129.4657 z m 286.477,0 0,-129.4655 -132.2201,0 -132.2202,0 0,129.4655 0,129.4657 132.2202,0 132.2201,0 0,-129.4657 z m 325.0413,-132.2202 0,-261.6854 -151.5023,0 -151.5023,0 0,261.6854 0,261.6859 151.5023,0 151.5023,0 0,-261.6859 z m 446.2431,132.2202 0,-129.4655 -129.4657,0 -129.4655,0 0,129.4655 0,129.4657 129.4655,0 129.4657,0 0,-129.4657 z m 330.5503,0 0,-129.4655 -154.2569,0 -154.2568,0 0,129.4655 0,129.4657 154.2568,0 154.2569,0 0,-129.4657 z m 280.9679,0 0,-129.4655 -129.4655,0 -129.4657,0 0,129.4655 0,129.4657 129.4657,0 129.4655,0 0,-129.4657 z m 457.2615,-132.2202 0,-261.6854 -134.9749,0 -134.9747,0 0,261.6854 0,261.6859 134.9747,0 134.9749,0 0,-261.6859 z m 296.1721,1.3773 -1.4306,-260.3082 -136.3522,-1.4747 -136.352,-1.4727 0,261.782 0,261.782 137.7834,0 137.7832,0 -1.4305,-260.3084 z m 304.3279,-1.3773 0,-261.6854 -140.4841,0 -140.484,0 0,261.6854 0,261.6859 140.484,0 140.4841,0 0,-261.6859 z m 457.26116,132.2202 0,-129.4655 -134.9747,0 -134.9747,0 0,129.4655 0,129.4657 134.9747,0 134.9747,0 0,-129.4657 z m 297.4953,0 0,-129.4655 -137.7293,0 -137.7292,0 0,129.4655 0,129.4657 137.7292,0 137.7293,0 0,-129.4657 z m 303.00469,0 0,-129.4655 -140.48409,0 -140.4838,0 0,129.4655 0,129.4657 140.4838,0 140.48409,0 0,-129.4657 z m 490.31638,-110.1835 0,-239.6487 -151.5024,0 -151.502208,0 0,239.6487 0,239.6492 151.502208,0 151.5024,0 0,-239.6492 z m 242.4035,121.2018 0,-118.447 -110.1834,0 -110.1834,0 0,118.447 0,118.4474 110.1834,0 110.1834,0 0,-118.4474 z m 325.0415,-66.11 0,-184.557 -151.5025,0 -151.5022,0 0,184.557 0,184.5574 151.5022,0 151.5025,0 0,-184.5574 z m -327.796,-250.6671 0,-173.5391 -107.4289,0 -107.4289,0 -1.4599,167.973 c -0.8024,92.3849 -0.2405,171.1508 1.2507,175.0355 2.1027,5.4791 26.5157,6.7274 108.8889,5.566 l 106.1787,-1.4965 0,-173.5389 z m -4514.76763,33.0551 0,-121.2019 -129.4656,0 -129.4655,0 0,121.2019 0,121.2016 129.4655,0 129.4656,0 0,-121.2016 z m 283.7225,0 0,-118.4474 -129.4656,0 -129.4656,0 -1.4948,112.7893 c -0.8227,62.0341 -0.2626,116.0009 1.2432,119.9262 2.1567,5.6201 29.9931,6.8227 130.9608,5.6581 l 128.2221,-1.4783 0,-118.4472 z m 774.0389,-33.0551 0,-154.2569 -129.4657,0 -129.4655,0 0,154.2569 0,154.2567 129.4655,0 129.4657,0 0,-154.2567 z m 327.7958,0 0,-151.5023 -151.5024,0 -151.5023,0 -1.4708,145.9066 c -0.8099,80.2489 -0.2517,149.0845 1.2376,152.9687 2.1315,5.5537 34.7883,6.7483 152.9738,5.5952 l 150.2637,-1.4654 0,-151.5022 z m 283.7224,0 0,-154.2569 -129.4655,0 -129.4657,0 0,154.2569 0,154.2567 129.4657,0 129.4655,0 0,-154.2567 z m 1667.95066,-141.8613 1.4249,-293.3633 -212.1513,0 -212.1516,0 0,294.8059 0,294.8063 210.726,-1.4432 210.7258,-1.4435 1.4249,-293.3633 z m 447.57199,1.3773 0,-294.7406 -212.10329,0 -212.103,0 0,291.0678 c 0,160.0874 1.6526,292.7208 3.6727,294.7406 2.02,2.0199 97.4664,3.6729 212.1031,3.6729 l 208.43049,0 0,-294.7407 z m 1057.76138,-55.0918 0,-239.6488 -151.5025,0 -151.5022,0 0,239.6488 0,239.6493 151.5022,0 151.5025,0 0,-239.6493 z m -567.445,-55.0917 0,-184.5571 -151.5024,0 -151.502208,0 0,184.5571 0,184.5575 151.502208,0 151.5024,0 0,-184.5575 z m -3988.64163,-22.0367 0,-162.5204 -272.7041,0 -272.704,0 0,162.5204 0,162.5207 272.704,0 272.7041,0 0,-162.5207 z m 325.0413,0 0,-162.5204 -151.5023,0 -151.5023,0 0,162.5204 0,162.5207 151.5023,0 151.5023,0 0,-162.5207 z m 1669.2797,0 0,-162.5204 -212.1033,0 -212.1032,0 0,162.5204 0,162.5207 212.1032,0 212.1033,0 0,-162.5207 z m 446.2431,0 0,-162.5204 -212.1034,0 -212.1031,0 0,162.5204 0,162.5207 212.1031,0 212.1034,0 0,-162.5207 z m -1669.2797,-33.0551 0,-129.4653 -129.4657,0 -129.4655,0 0,129.4653 0,129.4657 129.4655,0 129.4657,0 0,-129.4657 z m 330.5503,0 0,-129.4653 -154.2569,0 -154.2568,0 0,129.4653 0,129.4657 154.2568,0 154.2569,0 0,-129.4657 z m 280.9679,0 0,-129.4653 -129.4655,0 -129.4657,0 0,129.4653 0,129.4657 129.4657,0 129.4655,0 0,-129.4657 z m 2848.24253,-11.0183 0,-118.447 -110.1834,0 -110.1834,0 0,118.447 0,118.4473 110.1834,0 110.1834,0 0,-118.4473 z m -4605.66893,-424.2064 0,-118.4471 -85.3921,0 -85.3922,0 0,118.4471 0,118.4475 85.3922,0 85.3921,0 0,-118.4475 z m 330.5504,0 0,-118.4471 -154.2568,0 -154.2569,0 0,118.4471 0,118.4475 154.2569,0 154.2568,0 0,-118.4475 z m 369.1147,0 0,-118.4471 -173.539,0 -173.539,0 0,118.4471 0,118.4475 173.539,0 173.539,0 0,-118.4475 z m 710.6834,-143.2384 0,-261.6856 -261.6858,0 -261.6857,0 0,261.6856 0,261.6859 261.6857,0 261.6858,0 0,-261.6859 z m 347.0779,99.165 0,-162.5204 -162.5205,0 -162.5207,0 0,162.5204 0,162.5209 162.5207,0 162.5205,0 0,-162.5209 z m 617.0275,22.0368 0,-140.484 -214.8578,0 -214.8578,0 0,140.484 0,140.4841 214.8578,0 214.8578,0 0,-140.4841 z m 440.734,-145.993 0,-286.4771 -209.3487,0 -209.3487,0 0,286.4771 0,286.4771 209.3487,0 209.3487,0 0,-286.4771 z m 479.29796,168.0296 0,-118.4471 -145.9931,0 -145.9931,0 0,118.4471 0,118.4475 145.9931,0 145.9931,0 0,-118.4475 z m 260.0996,0 -1.5866,-118.4523 -118.2386,0 -118.2386,0 0,118.4471 0,118.4474 119.8246,0 119.8246,0 -1.5867,-118.4522 z m 318.36359,0 0,-118.4471 -145.99319,0 -145.9931,0 0,118.4471 0,118.4475 145.9931,0 145.99319,0 0,-118.4475 z m 369.11448,0 0,-118.4471 -90.9013,0 -90.901408,0 0,118.4471 0,118.4475 90.901408,0 90.9013,0 0,-118.4475 z m 374.6238,0 0,-118.4471 -176.2934,0 -176.2936,0 0,118.4471 0,118.4475 176.2936,0 176.2934,0 0,-118.4475 z m 314.0231,-77.1284 0,-195.5755 -145.9932,0 -145.9931,0 0,195.5755 0,195.5759 145.9931,0 145.9932,0 0,-195.5759 z m -4864.60033,-250.6672 0,-187.312 -118.4472,0 -118.4472,0 0,187.312 0,187.3119 118.4472,0 118.4472,0 0,-187.3119 z m 633.555,-0.036 0,-187.3585 -304.3819,1.4232 -304.3818,1.4215 -1.4563,179.0033 c -0.8006,98.4517 -0.2589,182.1225 1.2047,185.9345 2.0924,5.4526 67.3333,6.9313 305.8372,6.9313 l 303.1775,0 0,-187.3584 z m 2721.53166,11.0624 0,-176.2935 -209.3485,0 -209.3486,0 0,176.2935 0,176.2936 209.3486,0 209.3485,0 0,-176.2936 z m 451.75229,0 0,-176.2935 -209.34859,0 -209.3486,0 0,176.2935 0,176.2936 209.3486,0 209.34859,0 0,-176.2936 z m 479.29798,77.1285 0,-99.1652 -145.9931,0 -145.993108,0 0,99.1652 0,99.1651 145.993108,0 145.9931,0 0,-99.1651 z m 261.6858,-77.1285 0,-173.5388 -119.8244,-1.4838 -119.8246,-1.4839 0,176.5084 0,176.5085 119.8246,-1.4838 119.8244,-1.484 0,-173.5388 z m -2239.47893,-2.7544 0,-134.975 -214.8578,0 -214.8578,0 0,134.975 0,134.9746 214.8578,0 214.8578,0 0,-134.9746 z m -617.0275,2.7544 0,-88.1468 -162.5205,0 -162.5207,0 0,88.1468 0,88.1468 162.5207,0 162.5205,0 0,-88.1468 z m 3173.28403,-77.1285 0,-99.165 -145.9932,0 -145.9931,0 0,99.165 0,99.1652 145.9931,0 145.9932,0 0,-99.1652 z m -578.4634,-162.5204 0,-195.5756 -145.9931,0 -145.993108,0 0,195.5756 0,195.5755 145.993108,0 145.9931,0 0,-195.5755 z m -3140.22883,-33.0551 0,-162.5205 -162.5206,0 -162.5206,0 0,162.5205 0,162.5206 162.5206,0 162.5206,0 0,-162.5206 z m 352.5872,0 0,-162.5205 -165.2753,0 -165.2752,0 0,162.5205 0,162.5206 165.2752,0 165.2753,0 0,-162.5206 z m 192.821,0 0,-162.5205 -85.3921,0 -85.3923,0 0,162.5205 0,162.5206 85.3923,0 85.3921,0 0,-162.5206 z m 393.9059,-24.7913 0,-137.7292 -103.2969,0 -103.2971,0 0,137.7292 0,137.7293 103.2971,0 103.2969,0 0,-137.7293 z m 223.1216,0 0,-137.7292 -101.9198,0 -101.9196,0 0,137.7292 0,137.7293 101.9196,0 101.9198,0 0,-137.7293 z m 440.734,0 0,-137.7292 -209.3487,0 -209.3487,0 0,137.7292 0,137.7293 209.3487,0 209.3487,0 0,-137.7293 z m 479.29796,-19.2821 0,-118.4471 -145.9931,0 -145.9931,0 0,118.4471 0,118.4471 145.9931,0 145.9931,0 0,-118.4471 z m 260.0996,0 1.5867,-118.4524 -119.8246,0 -119.8247,0 0,118.4471 0,118.4471 118.2387,0 118.2385,0 1.5867,-118.4521 z m 318.36359,0 0,-118.4471 -145.99319,0 -145.9931,0 0,118.4471 0,118.4471 145.9931,0 145.99319,0 0,-118.4471 z m 739.39768,0 1.5867,-118.4524 -119.8245,0 -119.8247,0 0,118.4471 0,118.4471 118.2386,0 118.2385,0 1.5867,-118.4521 z m 318.3637,0 0,-118.4471 -145.9932,0 -145.9931,0 0,118.4471 0,118.4471 145.9931,0 145.9932,0 0,-118.4471 z m -4776.45353,-11.0182 0,-107.4289 -162.5206,0 -162.5206,0 0,107.4289 0,107.4287 162.5206,0 162.5206,0 0,-107.4287 z m 352.5871,0 0,-107.4289 -165.2752,0 -165.2752,0 0,107.4289 0,107.4287 165.2752,0 165.2752,0 0,-107.4287 z m 192.8211,0 0,-107.4289 -85.3922,0 -85.3922,0 0,107.4289 0,107.4287 85.3922,0 85.3922,0 0,-107.4287 z m -446.2431,-506.844 0,-212.1032 -212.1032,0 -212.1031,0 0,212.1032 0,212.1032 212.1031,0 212.1032,0 0,-212.1032 z m 446.2431,0 0,-212.1032 -212.1032,0 -212.1032,0 0,212.1032 0,212.1032 212.1032,0 212.1032,0 0,-212.1032 z m 1680.298,93.656 0,-118.4473 -217.6125,0 -217.6123,0 0,118.4473 0,118.4472 217.6123,0 217.6125,0 0,-118.4472 z m 435.2248,0 0,-118.4473 -206.5943,0 -206.5938,0 0,118.4473 0,118.4472 206.5938,0 206.5943,0 0,-118.4472 z m 424.20616,-44.0735 0,-162.5206 -118.4473,0 -118.4471,0 0,162.5206 0,162.5207 118.4471,0 118.4473,0 0,-162.5207 z m 264.4404,0 0,-162.5206 -121.2019,0 -121.2018,0 0,162.5206 0,162.5207 121.2018,0 121.2019,0 0,-162.5207 z m 369.11459,33.0551 0,-129.4656 -173.53909,0 -173.5388,0 0,129.4656 0,129.4656 173.5388,0 173.53909,0 0,-129.4656 z m 490.31638,22.0366 0,-107.4288 -151.5024,0 -151.502208,0 0,107.4288 0,107.429 151.502208,0 151.5024,0 0,-107.429 z m 286.477,-121.2017 0,-228.6307 -132.22,0 -132.2203,0 0,228.6307 0,228.6307 132.2203,0 132.22,0 0,-228.6307 z m 280.968,0 0,-228.6307 -129.4658,0 -129.4654,0 0,228.6307 0,228.6307 129.4654,0 129.4658,0 0,-228.6307 z m -3762.76563,11.0182 0,-206.5939 -129.4655,0 -129.4656,0 0,206.5939 0,206.5941 129.4656,0 129.4655,0 0,-206.5941 z m 567.4449,0 0,-206.5939 -272.7041,0 -272.704,0 0,206.5939 0,206.5941 272.704,0 272.7041,0 0,-206.5941 z m 2627.87573,-129.4655 0,-110.1834 -151.5024,0 -151.502208,0 0,110.1834 0,110.1835 151.502208,0 151.5024,0 0,-110.1835 z m -2181.63263,-88.1467 0,-176.2937 -118.4474,0 -118.4471,0 0,176.2937 0,176.2935 118.4471,0 118.4474,0 0,-176.2935 z m 371.8691,0 0,-173.539 -173.5388,0 -173.5391,0 -1.4599,167.9728 c -0.8024,92.385 -0.2478,171.1327 1.234,174.9949 2.1209,5.5265 39.3961,6.712 174.9992,5.5662 l 172.3044,-1.4563 0,-173.539 z m 261.686,0 0,-176.2937 -118.4475,0 -118.4471,0 0,176.2937 0,176.2935 118.4471,0 118.4475,0 0,-176.2935 z m 1057.76115,33.055 0,-121.2018 -173.53909,0 -173.5388,0 0,121.2018 0,121.2018 173.5388,0 173.53909,0 0,-121.2018 z m -369.11459,-206.594 0,-261.6857 -250.6676,0 -250.6672,0 0,261.6857 0,261.6857 250.6672,0 250.6676,0 0,-261.6857 z m -3250.41246,-49.5825 0,-212.1032 -212.1032,0 -212.1031,0 0,212.1032 0,212.1032 212.1031,0 212.1032,0 0,-212.1032 z m 446.2431,0 0,-212.1032 -212.1032,0 -212.1032,0 0,212.1032 0,212.1032 212.1032,0 212.1032,0 0,-212.1032 z m 754.7568,5.5091 0,-206.594 -272.7041,0 -272.7041,0 0,206.594 0,206.5941 272.7041,0 272.7041,0 0,-206.5941 z m 280.9678,0 0,-206.594 -129.4656,0 -129.4656,0 0,206.594 0,206.5941 129.4656,0 129.4656,0 0,-206.5941 z m 2870.27923,-22.0367 0,-195.5756 -272.704,0 -272.704108,0 0,195.5756 0,195.5757 272.704108,0 272.704,0 0,-195.5757 z m 325.0415,96.4105 0,-99.1651 -151.5025,0 -151.5022,0 0,99.1651 0,99.1652 151.5022,0 151.5025,0 0,-99.1652 z m -1057.76138,-129.4655 0,-162.5206 -173.53909,0 -173.5388,0 0,162.5206 0,162.5206 173.5388,0 173.53909,0 0,-162.5206 z m -1515.02265,-44.0734 0,-118.4472 -206.5941,0 -206.594,0 0,118.4472 0,118.4472 206.594,0 206.5941,0 0,-118.4472 z m 457.2615,0 0,-118.4472 -217.6126,0 -217.6122,0 0,118.4472 0,118.4472 217.6122,0 217.6126,0 0,-118.4472 z m 2115.52253,-33.055 0,-85.3922 -151.5025,0 -151.5022,0 0,85.3922 0,85.3921 151.5022,0 151.5025,0 0,-85.3921 z m -4677.28843,-410.43449 0,-137.72931 -212.1032,0 -212.1031,0 0,137.72931 0,137.72934 212.1031,0 212.1032,0 0,-137.72934 z m 446.2431,0 0,-137.72931 -212.1032,0 -212.1032,0 0,137.72931 0,137.72934 212.1032,0 212.1032,0 0,-137.72934 z m 606.0091,0 0,-137.72931 -209.3487,0 -209.3485,0 0,137.72931 0,137.72934 209.3485,0 209.3487,0 0,-137.72934 z m 225.8761,0 0,-137.72931 -101.9198,0 -101.9196,0 0,137.72931 0,137.72934 101.9196,0 101.9198,0 0,-137.72934 z m 225.8761,0 0,-137.72931 -103.2969,0 -103.2971,0 0,137.72931 0,137.72934 103.2971,0 103.2969,0 0,-137.72934 z m 380.133,0 0,-137.72931 -96.4106,0 -96.4105,0 0,137.72931 0,137.72934 96.4105,0 96.4106,0 0,-137.72934 z m 225.8761,0 0,-137.72931 -101.9197,0 -101.9197,0 0,137.72931 0,137.72934 101.9197,0 101.9197,0 0,-137.72934 z m 225.8762,0 0,-137.72931 -99.1652,0 -99.1651,0 0,137.72931 0,137.72934 99.1651,0 99.1652,0 0,-137.72934 z m 225.8762,0 0,-137.72931 -101.92,0 -101.9196,0 0,137.72931 0,137.72934 101.9196,0 101.92,0 0,-137.72934 z m 611.51806,-2.75458 0,-140.4839 -212.1032,0 -212.1031,0 0,140.4839 0,140.48392 212.1031,0 212.1032,0 0,-140.48392 z m 231.3853,2.75458 0,-137.72931 -101.9197,0 -101.9197,0 0,137.72931 0,137.72934 101.9197,0 101.9197,0 0,-137.72934 z m 214.85779,0 0,-137.72931 -96.41069,0 -96.4104,0 0,137.72931 0,137.72934 96.4104,0 96.41069,0 0,-137.72934 z m 462.77058,-74.37381 0,-212.10318 -137.7294,0 -137.729408,0 0,212.10318 0,212.10315 137.729408,0 137.7294,0 0,-212.10315 z m 291.9861,0 0,-212.10318 -134.9748,0 -134.9747,0 0,212.10318 0,212.10315 134.9747,0 134.9748,0 0,-212.10315 z m 303.0047,0 0,-212.10318 -140.4842,0 -140.4838,0 0,212.10318 0,212.10315 140.4838,0 140.4842,0 0,-212.10315 z m -4677.28843,-220.36694 0,-134.97474 -212.1032,0 -212.1031,0 0,134.97474 0,134.97475 212.1031,0 212.1032,0 0,-134.97475 z m 446.2431,0 0,-134.97474 -212.1032,0 -212.1032,0 0,134.97474 0,134.97475 212.1032,0 212.1032,0 0,-134.97475 z m 606.0091,-151.5021 0,-286.477014 -209.3487,0 -209.3485,0 0,286.477014 0,286.47685 209.3485,0 209.3487,0 0,-286.47685 z m 451.7522,151.5021 0,-134.97474 -214.8577,0 -214.8578,0 0,134.97474 0,134.97475 214.8578,0 214.8577,0 0,-134.97475 z m 606.0091,0 0,-134.97474 -209.3485,0 -209.3487,0 0,134.97474 0,134.97475 209.3487,0 209.3485,0 0,-134.97475 z m 451.7524,0 0,-134.97474 -212.1034,0 -212.1031,0 0,134.97474 0,134.97475 212.1031,0 212.1034,0 0,-134.97475 z m 451.75216,-5.50918 0,-134.97457 -132.2203,0 -132.2201,0 0,134.97457 0,134.97476 132.2201,0 132.2203,0 0,-134.97476 z m 323.7617,-1.37729 1.4747,-133.59728 -148.8457,0 -148.8457,0 0,135.06457 0,135.06471 147.3703,-1.46727 147.3705,-1.46726 1.4747,-133.59747 z m 282.24729,1.37729 0,-134.97457 -129.46569,0 -129.4655,0 0,134.97457 0,134.97476 129.4655,0 129.46569,0 0,-134.97476 z m 462.77058,-220.36676 0,-212.103174 -137.7294,0 -137.729408,0 0,212.103174 0,212.10301 137.729408,0 137.7294,0 0,-212.10301 z m 291.9861,0 0,-212.103174 -134.9748,0 -134.9747,0 0,212.103174 0,212.10301 134.9747,0 134.9748,0 0,-212.10301 z m 303.0047,0 0,-212.103174 -140.4842,0 -140.4838,0 0,212.103174 0,212.10301 140.4838,0 140.4842,0 0,-212.10301 z m -4677.28843,-71.61924 0,-140.483934 -212.1032,0 -212.1031,0 0,140.483934 0,140.4839 212.1031,0 212.1032,0 0,-140.4839 z m 446.2431,0 0,-140.483934 -212.1032,0 -212.1032,0 0,140.483934 0,140.4839 212.1032,0 212.1032,0 0,-140.4839 z m 1057.7613,0 0,-140.483934 -214.8577,0 -214.8578,0 0,140.483934 0,140.4839 214.8578,0 214.8577,0 0,-140.4839 z m 606.0091,0 0,-140.483934 -209.3485,0 -209.3487,0 0,140.483934 0,140.4839 209.3487,0 209.3485,0 0,-140.4839 z m 451.7524,0 0,-140.483934 -212.1034,0 -212.1031,0 0,140.483934 0,140.4839 212.1031,0 212.1034,0 0,-140.4839 z m 391.15116,-2.75458 0,-137.729354 -101.9198,0 -101.9196,0 0,137.729354 0,137.72931 101.9196,0 101.9198,0 0,-137.72931 z m 220.3669,0 0,-137.729354 -99.1651,0 -99.1651,0 0,137.729354 0,137.72931 99.1651,0 99.1651,0 0,-137.72931 z m 446.24309,0 0,-137.729354 -209.34859,0 -209.3486,0 0,137.729354 0,137.72931 209.3486,0 209.34859,0 0,-137.72931 z"
       id="path4177"
       inkscape:connector-curvature="0"
       clip-path="url(#clipPath4227)" />
  </g>
</svg>
