<?xml version="1.0" encoding="UTF-8" standalone="no"?>
<!-- Created with Inkscape (http://www.inkscape.org/) -->

<svg
   xmlns:dc="http://purl.org/dc/elements/1.1/"
   xmlns:cc="http://creativecommons.org/ns#"
   xmlns:rdf="http://www.w3.org/1999/02/22-rdf-syntax-ns#"
   xmlns:svg="http://www.w3.org/2000/svg"
   xmlns="http://www.w3.org/2000/svg"
   xmlns:xlink="http://www.w3.org/1999/xlink"
   xmlns:sodipodi="http://sodipodi.sourceforge.net/DTD/sodipodi-0.dtd"
   xmlns:inkscape="http://www.inkscape.org/namespaces/inkscape"
   width="297mm"
   height="297mm"
   viewBox="0 0 1052.3622 1052.3622"
   id="svg2"
   version="1.1"
   inkscape:version="0.91 r13725"
   sodipodi:docname="tempate7.svg">
  <defs
     id="defs4">
    <clipPath
       clipPathUnits="userSpaceOnUse"
       id="clipPath4321">
      <rect
         y="386.86218"
         x="82"
         height="288"
         width="439.5"
         id="rect4323"
         style="fill:#ffffff;stroke:none;stroke-opacity:1" />
    </clipPath>
    <clipPath
       clipPathUnits="userSpaceOnUse"
       id="clipPath4193">
      <rect
         style="fill:#ffffff;stroke:none;stroke-opacity:1"
         id="rect4195"
         width="438"
         height="592"
         x="80"
         y="77.362206" />
    </clipPath>
    <clipPath
       clipPathUnits="userSpaceOnUse"
       id="clipPath4208">
      <rect
         style="fill:#ffffff;stroke:none;stroke-opacity:1"
         id="rect4210"
         width="444.06305"
         height="285.67114"
         x="524.67322"
         y="386.97473" />
    </clipPath>
    <clipPath
       clipPathUnits="userSpaceOnUse"
       id="clipPath4226">
      <rect
         style="fill:#ffffff;stroke:none;stroke-opacity:1"
         id="rect4228"
         width="225.56706"
         height="298.39905"
         x="521.1377"
         y="676.1814" />
    </clipPath>
    <clipPath
       clipPathUnits="userSpaceOnUse"
       id="clipPath4203">
      <rect
         style="fill:#ffffff;stroke:none;stroke-opacity:1"
         id="rect4205"
         width="318.73398"
         height="278.18781"
         x="374.23068"
         y="382.43726" />
    </clipPath>
    <clipPath
       clipPathUnits="userSpaceOnUse"
       id="clipPath4271">
      <rect
         style="fill:#ffffff;stroke:none;stroke-opacity:1"
         id="rect4273"
         width="289"
         height="452"
         x="378"
         y="524.36218" />
    </clipPath>
    <clipPath
       clipPathUnits="userSpaceOnUse"
       id="clipPath4277">
      <rect
         style="fill:#ffffff;stroke:none;stroke-opacity:1"
         id="rect4279"
         width="306"
         height="454"
         x="669"
         y="526.36218" />
    </clipPath>
    <clipPath
       clipPathUnits="userSpaceOnUse"
       id="clipPath4299">
      <rect
         y="526.66254"
         x="81.687073"
         height="443.23465"
         width="442.39905"
         id="rect4301"
         style="fill:#ffffff;stroke:none;stroke-opacity:1" />
    </clipPath>
    <clipPath
       clipPathUnits="userSpaceOnUse"
       id="clipPath4343">
      <rect
         y="0.001904797"
         x="1.5495307"
         height="1052.3584"
         width="1046.2551"
         id="rect4345"
         style="fill:#ffffff;stroke:none;stroke-opacity:1" />
    </clipPath>
    <clipPath
       clipPathUnits="userSpaceOnUse"
       id="clipPath4373">
      <rect
         style="fill:#ffffff;stroke:none;stroke-opacity:1"
         id="rect4375"
         width="325.29904"
         height="452.10126"
         x="670.30731"
         y="78.416145" />
    </clipPath>
  </defs>
  <sodipodi:namedview
     id="base"
     pagecolor="#e5e5e5"
     bordercolor="#666666"
     borderopacity="1.0"
     inkscape:pageopacity="0"
     inkscape:pageshadow="2"
     inkscape:zoom="0.70710678"
     inkscape:cx="483.93375"
     inkscape:cy="518.2003"
     inkscape:document-units="px"
     inkscape:current-layer="layer1"
     showgrid="false"
     inkscape:window-width="1920"
     inkscape:window-height="1051"
     inkscape:window-x="1080"
     inkscape:window-y="420"
     inkscape:window-maximized="1"
     height="297mm"
     borderlayer="true"
     showguides="false">
    <sodipodi:guide
       position="91.001901,961.36029"
       orientation="870.35838,0"
       id="guide4200" />
    <sodipodi:guide
       position="91.001901,91.001895"
       orientation="0,870.35839"
       id="guide4202" />
    <sodipodi:guide
       position="961.36031,91.001895"
       orientation="-870.35838,0"
       id="guide4204" />
    <sodipodi:guide
       position="961.36031,961.36029"
       orientation="0,-870.35839"
       id="guide4206" />
  </sodipodi:namedview>
  <metadata
     id="metadata7">
    <rdf:RDF>
      <cc:Work
         rdf:about="">
        <dc:format>image/svg+xml</dc:format>
        <dc:type
           rdf:resource="http://purl.org/dc/dcmitype/StillImage" />
        <dc:title></dc:title>
      </cc:Work>
    </rdf:RDF>
  </metadata>
  <g
     inkscape:label="Layer 1"
     inkscape:groupmode="layer"
     id="layer1"
     transform="translate(0,-1.6535434e-6)">
    <image
       sodipodi:absref="/home/cliffe/Files/Projects/Photobook/photo4.jpg"
       xlink:href="photo4.jpg"
       width="571.54669"
       height="438.82547"
       preserveAspectRatio="none"
       id="image4285"
       x="541.09625"
       y="79.688225"
       clip-path="url(#clipPath4373)" />
    <image
       sodipodi:absref="/home/cliffe/Files/Projects/Photobook/photo2.jpg"
       xlink:href="photo2.jpg"
       clip-path="none"
       width="584.53448"
       height="448.79724"
       preserveAspectRatio="none"
       id="image4282"
       x="85.772812"
       y="78.416145" />
    <image
       sodipodi:absref="/home/cliffe/Files/Projects/Photobook/photo1.jpg"
       xlink:href="photo1.jpg"
       transform="translate(-66.468038,1.4142136)"
       clip-path="url(#clipPath4299)"
       width="565.03845"
       height="433.82846"
       preserveAspectRatio="none"
       id="image4291"
       x="19.367371"
       y="532.5351" />
    <image
       sodipodi:absref="/home/cliffe/Files/Projects/Photobook/photo3.jpg"
       xlink:href="photo3.jpg"
       y="525.01709"
       x="379.85513"
       id="image4287"
       preserveAspectRatio="none"
       height="449.87769"
       width="585.94165"
       clip-path="none" />
    <path
       style="fill:#ffffff"
       d="m -1135.3918,1068.4982 0,-2168.0888 2766.5452,0 2766.5449,0 0,2168.0888 0,2168.0887 -2766.5449,0 -2766.5452,0 0,-2168.0887 z m 368.87263,1939.423 0,-132.6825 -135.44546,0 -135.44537,0 0,132.6825 0,132.6826 135.44537,0 135.44546,0 0,-132.6826 z m 299.70903,0 0,-132.6825 -138.32719,0 -138.32729,0 0,132.6825 0,132.6826 138.32729,0 138.32719,0 0,-132.6826 z m 340.05456,-135.5056 0,-268.1877 -158.5,0 -158.50001,0 0,268.1877 0,268.1882 158.50001,0 158.5,0 0,-268.1882 z m 466.85456,135.5056 0,-132.6825 -135.44556,0 -135.445364,0 0,132.6825 0,132.6826 135.445364,0 135.44556,0 0,-132.6826 z m 345.81802,0 0,-132.6825 -161.38184,0 -161.38173,0 0,132.6825 0,132.6826 161.38173,0 161.38184,0 0,-132.6826 z m 293.94547,0 0,-132.6825 -135.44535,0 -135.44557,0 0,132.6825 0,132.6826 135.44557,0 135.44535,0 0,-132.6826 z m 478.38193,-135.5056 0,-268.1877 -141.2093,0 -141.209,0 0,268.1877 0,268.1882 141.209,0 141.2093,0 0,-268.1882 z m 309.8519,1.4115 -1.4967,-266.7763 -142.6501,-1.5113 -142.6499,-1.5093 0,268.2867 0,268.2867 144.1474,0 144.1472,0 -1.4965,-266.7765 z m 318.3845,-1.4115 0,-268.1877 -146.9729,0 -146.9728,0 0,268.1877 0,268.1882 146.9728,0 146.9729,0 0,-268.1882 z m 478.3814,135.5056 0,-132.6825 -141.209,0 -141.209,0 0,132.6825 0,132.6826 141.209,0 141.209,0 0,-132.6826 z m 311.2362,0 0,-132.6825 -144.0908,0 -144.0908,0 0,132.6825 0,132.6826 144.0908,0 144.0908,0 0,-132.6826 z m 317.0002,0 0,-132.6825 -146.9729,0 -146.9726,0 0,132.6825 0,132.6826 146.9726,0 146.9729,0 0,-132.6826 z m 512.9635,-112.9213 0,-245.6035 -158.5001,0 -158.4999,0 0,245.6035 0,245.6039 158.4999,0 158.5001,0 0,-245.6039 z m 253.5998,124.2134 0,-121.3902 -115.2726,0 -115.2727,0 0,121.3902 0,121.3905 115.2727,0 115.2726,0 0,-121.3905 z m 340.0548,-67.7527 0,-189.1429 -158.5002,0 -158.4999,0 0,189.1429 0,189.1432 158.4999,0 158.5002,0 0,-189.1432 z m -342.9365,-256.8957 0,-177.8512 -112.3909,0 -112.3909,0 -1.5274,172.1468 c -0.8394,94.6805 -0.2516,175.4036 1.3085,179.3848 2.1998,5.6152 27.7404,6.8945 113.9184,5.7043 l 111.0829,-1.5337 0,-177.851 z m -4723.29937,33.8765 0,-124.2135 -135.44546,0 -135.44537,0 0,124.2135 0,124.2132 135.44537,0 135.44546,0 0,-124.2132 z m 296.8273,0 0,-121.3906 -135.44546,0 -135.44546,0 -1.56384,115.5919 c -0.8607,63.5755 -0.27473,118.8833 1.30062,122.9061 2.25632,5.7597 31.37845,6.9922 137.00972,5.7987 l 134.14453,-1.515 0,-121.3904 z m 809.79085,-33.8765 0,-158.0898 -135.44556,0 -135.445364,0 0,158.0898 0,158.0897 135.445364,0 135.44556,0 0,-158.0897 z m 342.9363,0 0,-155.2668 -158.50012,0 -158.50001,0 -1.53873,149.5321 c -0.84731,82.2429 -0.26333,152.7889 1.29476,156.7696 2.22995,5.6917 36.39513,6.916 160.03948,5.7343 l 157.2042,-1.5019 0,-155.2667 z m 296.82719,0 0,-158.0898 -135.44535,0 -135.44557,0 0,158.0898 0,158.0897 135.44557,0 135.44535,0 0,-158.0897 z m 1744.99133,-145.3862 1.4907,-300.6528 -221.9503,0 -221.9507,0 0,302.1312 0,302.1316 220.4592,-1.479 220.459,-1.4794 1.4907,-300.6528 z m 468.2448,1.4115 0,-302.0643 -221.9001,0 -221.8998,0 0,298.3002 c 0,164.0653 1.7289,299.9943 3.8423,302.0643 2.1133,2.0701 101.9683,3.7642 221.8999,3.7642 l 218.0577,0 0,-302.0644 z m 1106.6181,-56.4607 0,-245.6036 -158.5002,0 -158.4999,0 0,245.6036 0,245.6041 158.4999,0 158.5002,0 0,-245.6041 z m -593.6546,-56.4606 0,-189.143 -158.5001,0 -158.4999,0 0,189.143 0,189.1433 158.4999,0 158.5001,0 0,-189.1433 z m -4172.87224,-22.5843 0,-166.5587 -285.29997,0 -285.29989,0 0,166.5587 0,166.559 285.29989,0 285.29997,0 0,-166.559 z m 340.05456,0 0,-166.5587 -158.5,0 -158.50001,0 0,166.5587 0,166.559 158.50001,0 158.5,0 0,-166.559 z m 1746.38178,0 0,-166.5587 -221.9001,0 -221.9,0 0,166.5587 0,166.559 221.9,0 221.9001,0 0,-166.559 z m 466.8546,0 0,-166.5587 -221.9003,0 -221.8998,0 0,166.5587 0,166.559 221.8998,0 221.9003,0 0,-166.559 z m -1746.38182,-33.8765 0,-132.6822 -135.44556,0 -135.445364,0 0,132.6822 0,132.6827 135.445364,0 135.44556,0 0,-132.6827 z m 345.81802,0 0,-132.6822 -161.38184,0 -161.38173,0 0,132.6822 0,132.6827 161.38173,0 161.38184,0 0,-132.6827 z m 293.94547,0 0,-132.6822 -135.44535,0 -135.44557,0 0,132.6822 0,132.6827 135.44557,0 135.44535,0 0,-132.6827 z m 2979.79943,-11.292 0,-121.3902 -115.2726,0 -115.2727,0 0,121.3902 0,121.3904 115.2727,0 115.2726,0 0,-121.3904 z m -4818.39926,-434.7471 0,-121.3902 -89.33626,0 -89.33638,0 0,121.3902 0,121.3907 89.33638,0 89.33626,0 0,-121.3907 z m 345.81812,0 0,-121.3902 -161.38173,0 -161.38184,0 0,121.3902 0,121.3907 161.38184,0 161.38173,0 0,-121.3907 z m 386.16366,0 0,-121.3902 -181.55455,0 -181.55456,0 0,121.3902 0,121.3907 181.55456,0 181.55455,0 0,-121.3907 z m 743.50904,-146.7975 0,-268.188 -273.77275,0 -273.772654,0 0,268.188 0,268.1882 273.772654,0 273.77275,0 0,-268.1882 z m 363.10901,101.629 0,-166.5587 -170.02712,0 -170.02734,0 0,166.5587 0,166.5592 170.02734,0 170.02712,0 0,-166.5592 z m 645.52733,22.5844 0,-143.9748 -224.7818,0 -224.7819,0 0,143.9748 0,143.9748 224.7819,0 224.7818,0 0,-143.9748 z m 461.091,-149.6207 0,-293.5954 -219.0183,0 -219.0183,0 0,293.5954 0,293.5955 219.0183,0 219.0183,0 0,-293.5955 z m 501.436,172.2048 0,-121.3902 -152.7363,0 -152.7363,0 0,121.3902 0,121.3907 152.7363,0 152.7363,0 0,-121.3907 z m 272.1133,0 -1.6598,-121.3956 -123.6999,0 -123.6999,0 0,121.3903 0,121.3906 125.3591,0 125.3592,0 -1.66,-121.3955 z m 333.0685,0 0,-121.3902 -152.7365,0 -152.7363,0 0,121.3902 0,121.3907 152.7363,0 152.7365,0 0,-121.3907 z m 386.1634,0 0,-121.3902 -95.0999,0 -95.1,0 0,121.3902 0,121.3907 95.1,0 95.0999,0 0,-121.3907 z m 391.9272,0 0,-121.3902 -184.4361,0 -184.4364,0 0,121.3902 0,121.3907 184.4364,0 184.4361,0 0,-121.3907 z m 328.5275,-79.0449 0,-200.4351 -152.7365,0 -152.7363,0 0,200.4351 0,200.4356 152.7363,0 152.7365,0 0,-200.4356 z m -5089.29042,-256.8957 0,-191.9663 -123.91813,0 -123.91815,0 0,191.9663 0,191.9662 123.91815,0 123.91813,0 0,-191.9662 z m 662.81814,-0.037 0,-192.014 -318.44093,1.4586 -318.44083,1.4568 -1.52356,183.4512 c -0.83758,100.898 -0.27086,186.6478 1.26034,190.5546 2.18905,5.588 70.44335,7.1035 319.96346,7.1035 l 317.18089,0 0,-192.0139 z m 2847.23598,11.3373 0,-180.674 -219.0181,0 -219.0181,0 0,180.674 0,180.6741 219.0181,0 219.0181,0 0,-180.6741 z m 472.6182,0 0,-180.674 -219.0182,0 -219.0182,0 0,180.674 0,180.6741 219.0182,0 219.0182,0 0,-180.6741 z m 501.4362,79.045 0,-101.6293 -152.7364,0 -152.7363,0 0,101.6293 0,101.6291 152.7363,0 152.7364,0 0,-101.6291 z m 273.7727,-79.045 0,-177.8509 -125.3589,-1.5207 -125.3592,-1.5207 0,180.8942 0,180.8944 125.3592,-1.5207 125.3589,-1.5209 0,-177.8508 z m -2342.9177,-2.8229 0,-138.3288 -224.7818,0 -224.7819,0 0,138.3288 0,138.3285 224.7819,0 224.7818,0 0,-138.3285 z m -645.52733,2.8229 0,-90.3371 -170.02712,0 -170.02734,0 0,90.3371 0,90.337 170.02734,0 170.02712,0 0,-90.337 z m 3319.85423,-79.045 0,-101.629 -152.7365,0 -152.7363,0 0,101.629 0,101.6292 152.7363,0 152.7365,0 0,-101.6292 z m -605.1819,-166.5587 0,-200.4352 -152.7364,0 -152.7363,0 0,200.4352 0,200.4351 152.7363,0 152.7364,0 0,-200.4351 z m -3285.27228,-33.8764 0,-166.5588 -170.02723,0 -170.027234,0 0,166.5588 0,166.5589 170.027234,0 170.02723,0 0,-166.5589 z m 368.87278,0 0,-166.5588 -172.90916,0 -172.90907,0 0,166.5588 0,166.5589 172.90907,0 172.90916,0 0,-166.5589 z m 201.72717,0 0,-166.5588 -89.33625,0 -89.33647,0 0,166.5588 0,166.5589 89.33647,0 89.33625,0 0,-166.5589 z m 412.10003,-25.4074 0,-141.1514 -108.0681,0 -108.0683,0 0,141.1514 0,141.1516 108.0683,0 108.0681,0 0,-141.1516 z m 233.4273,0 0,-141.1514 -106.6274,0 -106.6271,0 0,141.1514 0,141.1516 106.6271,0 106.6274,0 0,-141.1516 z m 461.091,0 0,-141.1514 -219.0183,0 -219.0183,0 0,141.1514 0,141.1516 219.0183,0 219.0183,0 0,-141.1516 z m 501.436,-19.7612 0,-121.3902 -152.7363,0 -152.7363,0 0,121.3902 0,121.3903 152.7363,0 152.7363,0 0,-121.3903 z m 272.1133,0 1.66,-121.3957 -125.3591,0 -125.3593,0 0,121.3903 0,121.3903 123.7,0 123.6998,0 1.66,-121.3954 z m 333.0685,0 0,-121.3902 -152.7365,0 -152.7363,0 0,121.3902 0,121.3903 152.7363,0 152.7365,0 0,-121.3903 z m 773.5496,0 1.6599,-121.3957 -125.359,0 -125.3593,0 0,121.3903 0,121.3903 123.6999,0 123.6998,0 1.66,-121.3954 z m 333.0685,0 0,-121.3902 -152.7365,0 -152.7363,0 0,121.3902 0,121.3903 152.7363,0 152.7365,0 0,-121.3903 z m -4997.07222,-11.292 0,-110.0982 -170.02723,0 -170.02725,0 0,110.0982 0,110.0981 170.02725,0 170.02723,0 0,-110.0981 z m 368.87267,0 0,-110.0982 -172.90906,0 -172.90906,0 0,110.0982 0,110.0981 172.90906,0 172.90906,0 0,-110.0981 z m 201.72727,0 0,-110.0982 -89.33635,0 -89.33637,0 0,110.0982 0,110.0981 89.33637,0 89.33635,0 0,-110.0981 z m -466.85452,-519.43798 0,-217.37352 -221.9,0 -221.8999,0 0,217.37352 0,217.37351 221.8999,0 221.9,0 0,-217.37351 z m 466.85452,0 0,-217.37352 -221.89998,0 -221.9,0 0,217.37352 0,217.37351 221.9,0 221.89998,0 0,-217.37351 z m 1757.90898,95.98315 0,-121.39047 -227.6637,0 -227.6636,0 0,121.39047 0,121.39036 227.6636,0 227.6637,0 0,-121.39036 z m 455.3274,0 0,-121.39047 -216.1367,0 -216.1361,0 0,121.39047 0,121.39036 216.1361,0 216.1367,0 0,-121.39036 z m 443.7996,-45.16863 0,-166.5589 -123.9182,0 -123.918,0 0,166.5589 0,166.55899 123.918,0 123.9182,0 0,-166.55899 z m 276.6546,0 0,-166.5589 -126.8001,0 -126.7999,0 0,166.5589 0,166.55899 126.7999,0 126.8001,0 0,-166.55899 z m 386.1636,33.87645 0,-132.68255 -181.5547,0 -181.5543,0 0,132.68255 0,132.68254 181.5543,0 181.5547,0 0,-132.68254 z m 512.9635,22.58416 0,-110.09818 -158.5001,0 -158.4999,0 0,110.09818 0,110.09838 158.4999,0 158.5001,0 0,-110.09838 z m 299.709,-124.21331 0,-234.31169 -138.3271,0 -138.3274,0 0,234.31169 0,234.31169 138.3274,0 138.3271,0 0,-234.31169 z m 293.9456,0 0,-234.31169 -135.4457,0 -135.4452,0 0,234.31169 0,234.31169 135.4452,0 135.4457,0 0,-234.31169 z m -3936.56327,11.29198 0,-211.72732 -135.44536,0 -135.445464,0 0,211.72732 0,211.72753 135.445464,0 135.44536,0 0,-211.72753 z m 593.6545,0 0,-211.72732 -285.29998,0 -285.29987,0 0,211.72732 0,211.72753 285.29987,0 285.29998,0 0,-211.72753 z m 2749.25417,-132.68245 0,-112.92122 -158.5001,0 -158.4999,0 0,112.92122 0,112.92133 158.4999,0 158.5001,0 0,-112.92133 z m -2282.3996,-90.33696 0,-180.67422 -123.9183,0 -123.9181,0 0,180.67422 0,180.67403 123.9181,0 123.9183,0 0,-180.67403 z m 389.0453,0 0,-177.85108 -181.5544,0 -181.5546,0 -1.5274,172.14658 c -0.8394,94.68057 -0.2592,175.38498 1.291,179.34315 2.2189,5.66382 41.2158,6.87878 183.0822,5.70451 l 180.263,-1.49249 0,-177.85108 z m 273.773,0 0,-180.67422 -123.9185,0 -123.918,0 0,180.67422 0,180.67403 123.918,0 123.9185,0 0,-180.67403 z m 1106.6178,33.87635 0,-124.21341 -181.5547,0 -181.5543,0 0,124.21341 0,124.21341 181.5543,0 181.5547,0 0,-124.21341 z m -386.1636,-211.72743 0,-268.188028 -262.2456,0 -262.2452,0 0,268.188028 0,268.18804 262.2452,0 262.2456,0 0,-268.18804 z m -3400.5451,-50.81452 0,-217.373508 -221.9,0 -221.8999,0 0,217.373508 0,217.37352 221.8999,0 221.9,0 0,-217.37352 z m 466.85452,0 0,-217.373508 -221.89998,0 -221.9,0 0,217.373508 0,217.37352 221.9,0 221.89998,0 0,-217.37352 z m 789.61814,5.64599 0,-211.727428 -285.29997,0 -285.299984,0 0,211.727428 0,211.72753 285.299984,0 285.29997,0 0,-211.72753 z m 293.94537,0 0,-211.727428 -135.44547,0 -135.44546,0 0,211.727428 0,211.72753 135.44546,0 135.44547,0 0,-211.72753 z m 3002.85397,-22.58426 0,-200.435238 -285.2999,0 -285.2999,0 0,200.435238 0,200.43534 285.2999,0 285.2999,0 0,-200.43534 z m 340.0548,98.8061 0,-101.62915 -158.5002,0 -158.4999,0 0,101.62915 0,101.62924 158.4999,0 158.5002,0 0,-101.62924 z m -1106.6181,-132.68245 0,-166.558888 -181.5547,0 -181.5543,0 0,166.558888 0,166.5589 181.5543,0 181.5547,0 0,-166.5589 z m -1584.9997,-45.16853 0,-121.390358 -216.1364,0 -216.1364,0 0,121.390358 0,121.39036 216.1364,0 216.1364,0 0,-121.39036 z m 478.3819,0 0,-121.390358 -227.6639,0 -227.6635,0 0,121.390358 0,121.39036 227.6635,0 227.6639,0 0,-121.39036 z m 2213.2359,-33.87635 0,-87.514008 -158.5002,0 -158.4999,0 0,87.514008 0,87.51392 158.4999,0 158.5002,0 0,-87.51392 z m -4893.3268,-420.63292 0,-141.1516 -221.9,0 -221.8999,0 0,141.1516 0,141.15163 221.8999,0 221.9,0 0,-141.15163 z m 466.85452,0 0,-141.1516 -221.89998,0 -221.9,0 0,141.1516 0,141.15163 221.9,0 221.89998,0 0,-141.15163 z m 633.99996,0 0,-141.1516 -219.01826,0 -219.018064,0 0,141.1516 0,141.15163 219.018064,0 219.01826,0 0,-141.15163 z m 236.30905,0 0,-141.1516 -106.62735,0 -106.62715,0 0,141.1516 0,141.15163 106.62715,0 106.62735,0 0,-141.15163 z m 236.30904,0 0,-141.1516 -108.06806,0 -108.06826,0 0,141.1516 0,141.15163 108.06826,0 108.06806,0 0,-141.15163 z m 397.69093,0 0,-141.1516 -100.8637,0 -100.8636,0 0,141.1516 0,141.15163 100.8636,0 100.8637,0 0,-141.15163 z m 236.309,0 0,-141.1516 -106.6272,0 -106.6272,0 0,141.1516 0,141.15163 106.6272,0 106.6272,0 0,-141.15163 z m 236.3092,0 0,-141.1516 -103.7455,0 -103.7454,0 0,141.1516 0,141.15163 103.7454,0 103.7455,0 0,-141.15163 z m 236.3092,0 0,-141.1516 -106.6276,0 -106.6272,0 0,141.1516 0,141.15163 106.6272,0 106.6276,0 0,-141.15163 z m 639.7632,-2.82303 0,-143.97463 -221.9,0 -221.8998,0 0,143.97463 0,143.97466 221.8998,0 221.9,0 0,-143.97466 z m 242.0727,2.82303 0,-141.1516 -106.6272,0 -106.6273,0 0,141.1516 0,141.15163 106.6273,0 106.6272,0 0,-141.15163 z m 224.7819,0 0,-141.1516 -100.8638,0 -100.8635,0 0,141.1516 0,141.15163 100.8635,0 100.8638,0 0,-141.15163 z m 484.1454,-76.22185 0,-217.3735 -144.091,0 -144.0909,0 0,217.3735 0,217.37348 144.0909,0 144.091,0 0,-217.37348 z m 305.4726,0 0,-217.3735 -141.2092,0 -141.209,0 0,217.3735 0,217.37348 141.209,0 141.2092,0 0,-217.37348 z m 317.0001,0 0,-217.3735 -146.973,0 -146.9726,0 0,217.3735 0,217.37348 146.9726,0 146.973,0 0,-217.37348 z m -4893.3268,-225.84259 0,-138.32858 -221.9,0 -221.8999,0 0,138.32858 0,138.32859 221.8999,0 221.9,0 0,-138.32859 z m 466.85452,0 0,-138.32858 -221.89998,0 -221.9,0 0,138.32858 0,138.32859 221.9,0 221.89998,0 0,-138.32859 z m 633.99996,-155.26661 0,-293.59534 -219.01826,0 -219.018064,0 0,293.59534 0,293.5952 219.018064,0 219.01826,0 0,-293.5952 z m 472.61809,155.26661 0,-138.32858 -224.78171,0 -224.78183,0 0,138.32858 0,138.32859 224.78183,0 224.78171,0 0,-138.32859 z m 633.99993,0 0,-138.32858 -219.018,0 -219.0183,0 0,138.32858 0,138.32859 219.0183,0 219.018,0 0,-138.32859 z m 472.6184,0 0,-138.32858 -221.9003,0 -221.8998,0 0,138.32858 0,138.32859 221.8998,0 221.9003,0 0,-138.32859 z m 472.6179,-5.64607 0,-138.32841 -138.3274,0 -138.3271,0 0,138.32841 0,138.3286 138.3271,0 138.3274,0 0,-138.3286 z m 338.7159,-1.41152 1.5428,-136.91689 -155.7207,0 -155.7207,0 0,138.42064 0,138.42079 154.1772,-1.50373 154.1773,-1.50372 1.5428,-136.91709 z m 295.284,1.41152 0,-138.32841 -135.4456,0 -135.4454,0 0,138.32841 0,138.3286 135.4454,0 135.4456,0 0,-138.3286 z m 484.1454,-225.84242 0,-217.37346 -144.091,0 -144.0909,0 0,217.37346 0,217.37333 144.0909,0 144.091,0 0,-217.37333 z m 305.4726,0 0,-217.37346 -141.2092,0 -141.209,0 0,217.37346 0,217.37333 141.209,0 141.2092,0 0,-217.37333 z m 317.0001,0 0,-217.37346 -146.973,0 -146.9726,0 0,217.37346 0,217.37333 146.9726,0 146.973,0 0,-217.37333 z m -4893.3268,-73.39882 0,-143.97464 -221.9,0 -221.8999,0 0,143.97464 0,143.97463 221.8999,0 221.9,0 0,-143.97463 z m 466.85452,0 0,-143.97464 -221.89998,0 -221.9,0 0,143.97464 0,143.97463 221.9,0 221.89998,0 0,-143.97463 z m 1106.61805,0 0,-143.97464 -224.78171,0 -224.78183,0 0,143.97464 0,143.97463 224.78183,0 224.78171,0 0,-143.97463 z m 633.99993,0 0,-143.97464 -219.018,0 -219.0183,0 0,143.97464 0,143.97463 219.0183,0 219.018,0 0,-143.97463 z m 472.6184,0 0,-143.97464 -221.9003,0 -221.8998,0 0,143.97464 0,143.97463 221.8998,0 221.9003,0 0,-143.97463 z m 409.2179,-2.82303 0,-141.15161 -106.6274,0 -106.6271,0 0,141.15161 0,141.1516 106.6271,0 106.6274,0 0,-141.1516 z m 230.5453,0 0,-141.15161 -103.7454,0 -103.7454,0 0,141.15161 0,141.1516 103.7454,0 103.7454,0 0,-141.1516 z m 466.8546,0 0,-141.15161 -219.0182,0 -219.0182,0 0,141.15161 0,141.1516 219.0182,0 219.0182,0 0,-141.1516 z"
       id="path4177"
       inkscape:connector-curvature="0"
       clip-path="url(#clipPath4343)"
       transform="matrix(1.0058334,0,0,1,-1.5566666,0)" />
  </g>
</svg>
