<?xml version="1.0" encoding="UTF-8" standalone="no"?>
<!-- Created with Inkscape (http://www.inkscape.org/) -->

<svg
   xmlns:dc="http://purl.org/dc/elements/1.1/"
   xmlns:cc="http://creativecommons.org/ns#"
   xmlns:rdf="http://www.w3.org/1999/02/22-rdf-syntax-ns#"
   xmlns:svg="http://www.w3.org/2000/svg"
   xmlns="http://www.w3.org/2000/svg"
   xmlns:xlink="http://www.w3.org/1999/xlink"
   xmlns:sodipodi="http://sodipodi.sourceforge.net/DTD/sodipodi-0.dtd"
   xmlns:inkscape="http://www.inkscape.org/namespaces/inkscape"
   width="297mm"
   height="297mm"
   viewBox="0 0 1052.3622 1052.3622"
   id="svg2"
   version="1.1"
   inkscape:version="0.91 r13725"
   sodipodi:docname="tempate1.svg">
  <defs
     id="defs4">
    <clipPath
       clipPathUnits="userSpaceOnUse"
       id="clipPath4251">
      <rect
         y="0.0030728909"
         x="0.0031029407"
         height="1052.8291"
         width="1052.8291"
         id="rect4253"
         style="fill:#ffffff;stroke:none;stroke-opacity:1" />
    </clipPath>
    <clipPath
       clipPathUnits="userSpaceOnUse"
       id="clipPath4313">
      <rect
         y="75.862183"
         x="82"
         height="300"
         width="441.5"
         id="rect4315"
         style="fill:#ffffff;stroke:none;stroke-opacity:1" />
    </clipPath>
    <clipPath
       clipPathUnits="userSpaceOnUse"
       id="clipPath4317">
      <rect
         style="fill:#ffffff;stroke:none;stroke-opacity:1"
         id="rect4319"
         width="441.5"
         height="300"
         x="533"
         y="77.862183" />
    </clipPath>
    <clipPath
       clipPathUnits="userSpaceOnUse"
       id="clipPath4321">
      <rect
         y="386.86218"
         x="82"
         height="288"
         width="439.5"
         id="rect4323"
         style="fill:#ffffff;stroke:none;stroke-opacity:1" />
    </clipPath>
    <clipPath
       clipPathUnits="userSpaceOnUse"
       id="clipPath4325">
      <rect
         style="fill:#ffffff;stroke:none;stroke-opacity:1"
         id="rect4327"
         width="439.5"
         height="288"
         x="531"
         y="387.86218" />
    </clipPath>
    <clipPath
       clipPathUnits="userSpaceOnUse"
       id="clipPath4329">
      <rect
         style="fill:#ffffff;stroke:none;stroke-opacity:1"
         id="rect4331"
         width="439.5"
         height="288"
         x="80"
         y="682.86218" />
    </clipPath>
    <clipPath
       clipPathUnits="userSpaceOnUse"
       id="clipPath4333">
      <rect
         y="682.86218"
         x="530"
         height="288"
         width="439.5"
         id="rect4335"
         style="fill:#ffffff;stroke:none;stroke-opacity:1" />
    </clipPath>
  </defs>
  <sodipodi:namedview
     id="base"
     pagecolor="#e5e5e5"
     bordercolor="#666666"
     borderopacity="1.0"
     inkscape:pageopacity="0"
     inkscape:pageshadow="2"
     inkscape:zoom="0.125"
     inkscape:cx="2828.3127"
     inkscape:cy="-238.38023"
     inkscape:document-units="px"
     inkscape:current-layer="layer1"
     showgrid="false"
     inkscape:window-width="1920"
     inkscape:window-height="1051"
     inkscape:window-x="1080"
     inkscape:window-y="420"
     inkscape:window-maximized="1"
     height="297mm"
     borderlayer="true"
     showguides="false">
    <sodipodi:guide
       position="91.001901,961.36029"
       orientation="870.35838,0"
       id="guide4200" />
    <sodipodi:guide
       position="91.001901,91.001895"
       orientation="0,870.35839"
       id="guide4202" />
    <sodipodi:guide
       position="961.36031,91.001895"
       orientation="-870.35838,0"
       id="guide4204" />
    <sodipodi:guide
       position="961.36031,961.36029"
       orientation="0,-870.35839"
       id="guide4206" />
  </sodipodi:namedview>
  <metadata
     id="metadata7">
    <rdf:RDF>
      <cc:Work
         rdf:about="">
        <dc:format>image/svg+xml</dc:format>
        <dc:type
           rdf:resource="http://purl.org/dc/dcmitype/StillImage" />
        <dc:title></dc:title>
      </cc:Work>
    </rdf:RDF>
  </metadata>
  <g
     inkscape:label="Layer 1"
     inkscape:groupmode="layer"
     id="layer1"
     transform="translate(0,-1.6535434e-6)">
    <image
       sodipodi:absref="/home/cliffe/Files/Projects/Photobook/photo1.jpg"
       xlink:href="photo1.jpg"
       y="372.4274"
       x="90.537857"
       id="image4291"
       preserveAspectRatio="none"
       height="326.44379"
       width="425.1756" />
    <image
       sodipodi:absref="/home/cliffe/Files/Projects/Photobook/photo1.jpg"
       xlink:href="photo1.jpg"
       clip-path="url(#clipPath4333)"
       y="663.42743"
       x="536.67932"
       id="image4289"
       preserveAspectRatio="none"
       height="326.44379"
       width="425.1756" />
    <image
       sodipodi:absref="/home/cliffe/Files/Projects/Photobook/photo1.jpg"
       xlink:href="photo1.jpg"
       clip-path="url(#clipPath4325)"
       width="425.1756"
       height="326.44379"
       preserveAspectRatio="none"
       id="image4287"
       x="536.67932"
       y="360.4274" />
    <image
       sodipodi:absref="/home/cliffe/Files/Projects/Photobook/photo1.jpg"
       xlink:href="photo1.jpg"
       clip-path="url(#clipPath4317)"
       y="68.427383"
       x="536.67932"
       id="image4285"
       preserveAspectRatio="none"
       height="326.44379"
       width="425.1756" />
    <image
       sodipodi:absref="/home/cliffe/Files/Projects/Photobook/photo1.jpg"
       xlink:href="photo1.jpg"
       clip-path="url(#clipPath4313)"
       width="425.1756"
       height="326.44379"
       preserveAspectRatio="none"
       id="image4282"
       x="90.537857"
       y="68.427383" />
    <rect
       style="fill:#ffffff;stroke:none;stroke-opacity:1"
       id="rect4192"
       width="1052.3584"
       height="1052.3584"
       x="-1708.8735"
       y="590.10364" />
    <rect
       y="1700.7075"
       x="-1706.6716"
       height="870.3584"
       width="870.3584"
       id="rect4196"
       style="fill:#ffffff;stroke:none;stroke-opacity:1" />
    <rect
       style="fill:#ffffff;stroke:none;stroke-opacity:1"
       id="rect4246"
       width="1183.8289"
       height="1183.8289"
       x="-1713.6437"
       y="-659.99774" />
    <rect
       style="fill:#ffffff;stroke:none;stroke-opacity:1"
       id="rect4223"
       width="429.5"
       height="270"
       x="-1696"
       y="2617.8621" />
    <image
       sodipodi:absref="/home/cliffe/Files/Projects/Photobook/photo1.jpg"
       xlink:href="photo1.jpg"
       clip-path="url(#clipPath4329)"
       y="659.77264"
       x="90.537857"
       id="image4295"
       preserveAspectRatio="none"
       height="326.44379"
       width="425.1756" />
    <path
       style="fill:#ffffff"
       d="m -2.6803355,2113.8593 0,-2116.4687287 2645.5862355,0 2645.586,0 0,2116.4687287 0,2116.4687 -2645.586,0 -2645.5862355,0 0,-2116.4687 z m 352.7448255,1893.2473 0,-129.5234 -129.52349,0 -129.523494,0 0,129.5234 0,129.5236 129.523494,0 129.52349,0 0,-129.5236 z m 286.60516,0 0,-129.5234 -132.2793,0 -132.2793,0 0,129.5234 0,129.5236 132.2793,0 132.2793,0 0,-129.5236 z m 325.18661,-132.2794 0,-261.8024 -151.57002,0 -151.57003,0 0,261.8024 0,261.803 151.57003,0 151.57002,0 0,-261.803 z m 446.44274,132.2794 0,-129.5234 -129.5236,0 -129.5234,0 0,129.5234 0,129.5236 129.5234,0 129.5236,0 0,-129.5236 z m 330.6982,0 0,-129.5234 -154.3259,0 -154.3258,0 0,129.5234 0,129.5236 154.3258,0 154.3259,0 0,-129.5236 z m 281.0935,0 0,-129.5234 -129.5234,0 -129.5236,0 0,129.5234 0,129.5236 129.5236,0 129.5234,0 0,-129.5236 z m 457.466,-132.2794 0,-261.8024 -135.0352,0 -135.0351,0 0,261.8024 0,261.803 135.0351,0 135.0352,0 0,-261.803 z m 296.3046,1.378 -1.4312,-260.4247 -136.4132,-1.4753 -136.413,-1.4734 0,261.8991 0,261.8991 137.845,0 137.8449,0 -1.4312,-260.4248 z m 304.464,-1.378 0,-261.8024 -140.5469,0 -140.5468,0 0,261.8024 0,261.803 140.5468,0 140.5469,0 0,-261.803 z m 457.4658,132.2794 0,-129.5234 -135.0351,0 -135.0351,0 0,129.5234 0,129.5236 135.0351,0 135.0351,0 0,-129.5236 z m 297.6284,0 0,-129.5234 -137.7909,0 -137.7909,0 0,129.5234 0,129.5236 137.7909,0 137.7909,0 0,-129.5236 z m 303.1402,0 0,-129.5234 -140.5469,0 -140.5467,0 0,129.5234 0,129.5236 140.5467,0 140.5469,0 0,-129.5236 z m 490.5357,-110.2328 0,-239.7559 -151.5701,0 -151.57,0 0,239.7559 0,239.7564 151.57,0 151.5701,0 0,-239.7564 z m 242.512,121.256 0,-118.5 -110.2327,0 -110.2327,0 0,118.5 0,118.5004 110.2327,0 110.2327,0 0,-118.5004 z m 325.1868,-66.1396 0,-184.6395 -151.5702,0 -151.57,0 0,184.6395 0,184.64 151.57,0 151.5702,0 0,-184.64 z m -327.9426,-250.7792 0,-173.6167 -107.4769,0 -107.477,0 -1.4605,168.0481 c -0.8028,92.4263 -0.2407,171.2274 1.2512,175.1138 2.1037,5.4816 26.5276,6.7304 108.9376,5.5685 l 106.2262,-1.4972 0,-173.6165 z m -4516.78711,33.0699 0,-121.2561 -129.52349,0 -129.523494,0 0,121.2561 0,121.2558 129.523494,0 129.52349,0 0,-121.2558 z m 283.84935,0 0,-118.5004 -129.52349,0 -129.52349,0 -1.4955,112.8398 c -0.82306,62.0618 -0.26272,116.0528 1.24379,119.9798 2.15763,5.6226 30.00647,6.8258 131.01937,5.6606 l 128.27948,-1.4789 0,-118.5002 z m 774.38516,-33.0699 0,-154.3259 -129.5236,0 -129.5234,0 0,154.3259 0,154.3257 129.5234,0 129.5236,0 0,-154.3257 z m 327.9424,0 0,-151.5701 -151.5701,0 -151.5701,0 -1.4715,145.9719 c -0.8102,80.2848 -0.2518,149.1512 1.2382,153.0371 2.1324,5.5562 34.8038,6.7514 153.0422,5.5977 l 150.3309,-1.466 0,-151.57 z m 283.8493,0 0,-154.3259 -129.5234,0 -129.5236,0 0,154.3259 0,154.3257 129.5236,0 129.5234,0 0,-154.3257 z m 1668.6968,-141.9247 1.4255,-293.4946 -212.2462,0 -212.2465,0 0,294.9378 0,294.9382 210.8203,-1.4439 210.8201,-1.4441 1.4255,-293.4945 z m 447.7722,1.3779 0,-294.8725 -212.1982,0 -212.1979,0 0,291.198 c 0,160.159 1.6534,292.8518 3.6744,294.8725 2.0209,2.0208 97.51,3.6745 212.198,3.6745 l 208.5237,0 0,-294.8725 z m 1058.2345,-55.1165 0,-239.756 -151.5702,0 -151.57,0 0,239.756 0,239.7565 151.57,0 151.5702,0 0,-239.7565 z m -567.6988,-55.1163 0,-184.6397 -151.5701,0 -151.57,0 0,184.6397 0,184.64 151.57,0 151.5701,0 0,-184.64 z m -3990.42575,-22.0466 0,-162.5931 -272.82607,0 -272.826074,0 0,162.5931 0,162.5934 272.826074,0 272.82607,0 0,-162.5934 z m 325.18661,0 0,-162.5931 -151.57002,0 -151.57003,0 0,162.5931 0,162.5934 151.57003,0 151.57002,0 0,-162.5934 z m 1670.02634,0 0,-162.5931 -212.1981,0 -212.1981,0 0,162.5931 0,162.5934 212.1981,0 212.1981,0 0,-162.5934 z m 446.4427,0 0,-162.5931 -212.1982,0 -212.198,0 0,162.5931 0,162.5934 212.198,0 212.1982,0 0,-162.5934 z m -1670.0263,-33.0699 0,-129.5232 -129.5236,0 -129.5234,0 0,129.5232 0,129.5237 129.5234,0 129.5236,0 0,-129.5237 z m 330.6982,0 0,-129.5232 -154.3259,0 -154.3258,0 0,129.5232 0,129.5237 154.3258,0 154.3259,0 0,-129.5237 z m 281.0935,0 0,-129.5232 -129.5234,0 -129.5236,0 0,129.5232 0,129.5237 129.5236,0 129.5234,0 0,-129.5237 z m 2849.5167,-11.0232 0,-118.5 -110.2327,0 -110.2327,0 0,118.5 0,118.5003 110.2327,0 110.2327,0 0,-118.5003 z m -4607.72911,-424.3961 0,-118.5001 -85.43039,0 -85.430394,0 0,118.5001 0,118.5004 85.430394,0 85.43039,0 0,-118.5004 z m 330.69825,0 0,-118.5001 -154.32584,0 -154.32586,0 0,118.5001 0,118.5004 154.32586,0 154.32584,0 0,-118.5004 z m 369.27972,0 0,-118.5001 -173.61658,0 -173.61658,0 0,118.5001 0,118.5004 173.61658,0 173.61658,0 0,-118.5004 z m 711.00134,-143.3025 0,-261.8027 -261.8029,0 -261.8027,0 0,261.8027 0,261.8029 261.8027,0 261.8029,0 0,-261.8029 z m 347.2331,99.2094 0,-162.5931 -162.5932,0 -162.5934,0 0,162.5931 0,162.5935 162.5934,0 162.5932,0 0,-162.5935 z m 617.3035,22.0466 0,-140.5468 -214.9539,0 -214.9539,0 0,140.5468 0,140.5469 214.9539,0 214.9539,0 0,-140.5469 z m 440.9311,-146.0583 0,-286.6052 -209.4423,0 -209.4423,0 0,286.6052 0,286.6052 209.4423,0 209.4423,0 0,-286.6052 z m 479.5124,168.1048 0,-118.5001 -146.0584,0 -146.0584,0 0,118.5001 0,118.5004 146.0584,0 146.0584,0 0,-118.5004 z m 260.216,0 -1.5873,-118.5053 -118.2915,0 -118.2915,0 0,118.5001 0,118.5003 119.8782,0 119.8782,0 -1.5874,-118.5051 z m 318.506,0 0,-118.5001 -146.0585,0 -146.0584,0 0,118.5001 0,118.5004 146.0584,0 146.0585,0 0,-118.5004 z m 369.2796,0 0,-118.5001 -90.942,0 -90.942,0 0,118.5001 0,118.5004 90.942,0 90.942,0 0,-118.5004 z m 374.7914,0 0,-118.5001 -176.3723,0 -176.3724,0 0,118.5001 0,118.5004 176.3724,0 176.3723,0 0,-118.5004 z m 314.1635,-77.1629 0,-195.663 -146.0585,0 -146.0584,0 0,195.663 0,195.6633 146.0584,0 146.0585,0 0,-195.6633 z m -4866.77626,-250.7794 0,-187.3957 -118.50022,0 -118.500214,0 0,187.3957 0,187.3957 118.500214,0 118.50022,0 0,-187.3957 z m 633.83832,-0.036 0,-187.4423 -304.51797,1.4239 -304.51798,1.4221 -1.45691,179.0834 c -0.80104,98.4957 -0.25905,182.2039 1.2052,186.0176 2.09333,5.4551 67.36343,6.9344 305.97397,6.9344 l 303.31314,0 0,-187.4422 z m 2722.74904,11.0674 0,-176.3724 -209.4421,0 -209.4423,0 0,176.3724 0,176.3724 209.4423,0 209.4421,0 0,-176.3724 z m 451.9544,0 0,-176.3724 -209.4422,0 -209.4423,0 0,176.3724 0,176.3724 209.4423,0 209.4422,0 0,-176.3724 z m 479.5124,77.163 0,-99.2096 -146.0584,0 -146.0584,0 0,99.2096 0,99.2094 146.0584,0 146.0584,0 0,-99.2094 z m 261.8028,-77.163 0,-173.6165 -119.878,-1.4844 -119.8782,-1.4846 0,176.5874 0,176.5874 119.8782,-1.4844 119.878,-1.4847 0,-173.6164 z m -2240.4807,-2.7557 0,-135.0353 -214.9539,0 -214.9539,0 0,135.0353 0,135.035 214.9539,0 214.9539,0 0,-135.035 z m -617.3035,2.7557 0,-88.1863 -162.5932,0 -162.5934,0 0,88.1863 0,88.1862 162.5934,0 162.5932,0 0,-88.1862 z m 3174.7035,-77.163 0,-99.2094 -146.0585,0 -146.0584,0 0,99.2094 0,99.2095 146.0584,0 146.0585,0 0,-99.2095 z m -578.7221,-162.5931 0,-195.6631 -146.0584,0 -146.0584,0 0,195.6631 0,195.663 146.0584,0 146.0584,0 0,-195.663 z m -3141.6335,-33.0699 0,-162.5932 -162.5933,0 -162.5933,0 0,162.5932 0,162.5933 162.5933,0 162.5933,0 0,-162.5933 z m 352.7449,0 0,-162.5932 -165.3492,0 -165.3492,0 0,162.5932 0,162.5933 165.3492,0 165.3492,0 0,-162.5933 z m 192.9072,0 0,-162.5932 -85.4303,0 -85.4305,0 0,162.5932 0,162.5933 85.4305,0 85.4303,0 0,-162.5933 z m 394.0821,-24.8024 0,-137.7908 -103.3431,0 -103.3433,0 0,137.7908 0,137.7909 103.3433,0 103.3431,0 0,-137.7909 z m 223.2214,0 0,-137.7908 -101.9654,0 -101.9652,0 0,137.7908 0,137.7909 101.9652,0 101.9654,0 0,-137.7909 z m 440.9311,0 0,-137.7908 -209.4423,0 -209.4423,0 0,137.7908 0,137.7909 209.4423,0 209.4423,0 0,-137.7909 z m 479.5124,-19.2907 0,-118.5001 -146.0584,0 -146.0584,0 0,118.5001 0,118.5001 146.0584,0 146.0584,0 0,-118.5001 z m 260.216,0 1.5874,-118.5054 -119.8782,0 -119.8783,0 0,118.5001 0,118.5001 118.2916,0 118.2914,0 1.5874,-118.5051 z m 318.506,0 0,-118.5001 -146.0585,0 -146.0584,0 0,118.5001 0,118.5001 146.0584,0 146.0585,0 0,-118.5001 z m 739.7284,0 1.5874,-118.5054 -119.8781,0 -119.8783,0 0,118.5001 0,118.5001 118.2915,0 118.2914,0 1.5874,-118.5051 z m 318.5061,0 0,-118.5001 -146.0585,0 -146.0584,0 0,118.5001 0,118.5001 146.0584,0 146.0585,0 0,-118.5001 z m -4778.59006,-11.0232 0,-107.4769 -162.5933,0 -162.593334,0 0,107.4769 0,107.4768 162.593334,0 162.5933,0 0,-107.4768 z m 352.74483,0 0,-107.4769 -165.34915,0 -165.34912,0 0,107.4769 0,107.4768 165.34912,0 165.34915,0 0,-107.4768 z m 192.90729,0 0,-107.4769 -85.43038,0 -85.43036,0 0,107.4769 0,107.4768 85.43036,0 85.43038,0 0,-107.4768 z m -446.44263,-507.0707 0,-212.198 -212.19807,0 -212.198054,0 0,212.198 0,212.1981 212.198054,0 212.19807,0 0,-212.1981 z m 446.44263,0 0,-212.198 -212.19803,0 -212.19806,0 0,212.198 0,212.1981 212.19806,0 212.19803,0 0,-212.1981 z m 1681.04964,93.6979 0,-118.5003 -217.7099,0 -217.7096,0 0,118.5003 0,118.5002 217.7096,0 217.7099,0 0,-118.5002 z m 435.4194,0 0,-118.5003 -206.6867,0 -206.6862,0 0,118.5003 0,118.5002 206.6862,0 206.6867,0 0,-118.5002 z m 424.396,-44.0932 0,-162.5933 -118.5003,0 -118.5001,0 0,162.5933 0,162.5934 118.5001,0 118.5003,0 0,-162.5934 z m 264.5587,0 0,-162.5933 -121.2561,0 -121.256,0 0,162.5933 0,162.5934 121.256,0 121.2561,0 0,-162.5934 z m 369.2797,33.0699 0,-129.5235 -173.6167,0 -173.6165,0 0,129.5235 0,129.5235 173.6165,0 173.6167,0 0,-129.5235 z m 490.5357,22.0465 0,-107.4769 -151.5701,0 -151.57,0 0,107.4769 0,107.477 151.57,0 151.5701,0 0,-107.477 z m 286.6052,-121.256 0,-228.7329 -132.2792,0 -132.2794,0 0,228.7329 0,228.733 132.2794,0 132.2792,0 0,-228.733 z m 281.0936,0 0,-228.7329 -129.5237,0 -129.5233,0 0,228.7329 0,228.733 129.5233,0 129.5237,0 0,-228.733 z m -3764.4487,11.0232 0,-206.6863 -129.5235,0 -129.5235,0 0,206.6863 0,206.6865 129.5235,0 129.5235,0 0,-206.6865 z m 567.6987,0 0,-206.6863 -272.8261,0 -272.826,0 0,206.6863 0,206.6865 272.826,0 272.8261,0 0,-206.6865 z m 2629.0512,-129.5234 0,-110.2327 -151.5701,0 -151.57,0 0,110.2327 0,110.2327 151.57,0 151.5701,0 0,-110.2327 z m -2182.6085,-88.1862 0,-176.3725 -118.5004,0 -118.5001,0 0,176.3725 0,176.3724 118.5001,0 118.5004,0 0,-176.3724 z m 372.0354,0 0,-173.6166 -173.6164,0 -173.6168,0 -1.4605,168.0479 c -0.8028,92.4264 -0.2479,171.2093 1.2345,175.0732 2.1219,5.529 39.4138,6.715 175.0775,5.5687 l 172.3815,-1.4569 0,-173.6167 z m 261.803,0 0,-176.3725 -118.5004,0 -118.5001,0 0,176.3725 0,176.3724 118.5001,0 118.5004,0 0,-176.3724 z m 1058.2344,33.0698 0,-121.256 -173.6167,0 -173.6165,0 0,121.256 0,121.256 173.6165,0 173.6167,0 0,-121.256 z m -369.2797,-206.6864 0,-261.8028 -250.7797,0 -250.7794,0 0,261.8028 0,261.8028 250.7794,0 250.7797,0 0,-261.8028 z m -3251.86637,-49.6047 0,-212.1981 -212.19807,0 -212.198054,0 0,212.1981 0,212.1981 212.198054,0 212.19807,0 0,-212.1981 z m 446.44263,0 0,-212.1981 -212.19803,0 -212.19806,0 0,212.1981 0,212.1981 212.19806,0 212.19803,0 0,-212.1981 z m 755.09444,5.5116 0,-206.6864 -272.8261,0 -272.8261,0 0,206.6864 0,206.6865 272.8261,0 272.8261,0 0,-206.6865 z m 281.0935,0 0,-206.6864 -129.5235,0 -129.5235,0 0,206.6864 0,206.6865 129.5235,0 129.5235,0 0,-206.6865 z m 2871.5632,-22.0466 0,-195.6631 -272.826,0 -272.8261,0 0,195.6631 0,195.6632 272.8261,0 272.826,0 0,-195.6632 z m 325.1868,96.4537 0,-99.2095 -151.5702,0 -151.57,0 0,99.2095 0,99.2095 151.57,0 151.5702,0 0,-99.2095 z m -1058.2345,-129.5235 0,-162.5933 -173.6167,0 -173.6165,0 0,162.5933 0,162.5933 173.6165,0 173.6167,0 0,-162.5933 z m -1515.7004,-44.0931 0,-118.5002 -206.6865,0 -206.6864,0 0,118.5002 0,118.5002 206.6864,0 206.6865,0 0,-118.5002 z m 457.466,0 0,-118.5002 -217.7099,0 -217.7095,0 0,118.5002 0,118.5002 217.7095,0 217.7099,0 0,-118.5002 z m 2116.4689,-33.0698 0,-85.4304 -151.5702,0 -151.57,0 0,85.4304 0,85.4303 151.57,0 151.5702,0 0,-85.4303 z M 515.41363,824.14337 l 0,-137.79092 -212.19807,0 -212.198054,0 0,137.79092 0,137.79095 212.198054,0 212.19807,0 0,-137.79095 z m 446.44263,0 0,-137.79092 -212.19803,0 -212.19806,0 0,137.79092 0,137.79095 212.19806,0 212.19803,0 0,-137.79095 z m 606.28024,0 0,-137.79092 -209.4424,0 -209.4421,0 0,137.79092 0,137.79095 209.4421,0 209.4424,0 0,-137.79095 z m 225.9771,0 0,-137.79092 -101.9654,0 -101.9652,0 0,137.79092 0,137.79095 101.9652,0 101.9654,0 0,-137.79095 z m 225.9771,0 0,-137.79092 -103.3431,0 -103.3433,0 0,137.79092 0,137.79095 103.3433,0 103.3431,0 0,-137.79095 z m 380.303,0 0,-137.79092 -96.4537,0 -96.4536,0 0,137.79092 0,137.79095 96.4536,0 96.4537,0 0,-137.79095 z m 225.9772,0 0,-137.79092 -101.9653,0 -101.9653,0 0,137.79092 0,137.79095 101.9653,0 101.9653,0 0,-137.79095 z m 225.9772,0 0,-137.79092 -99.2095,0 -99.2095,0 0,137.79092 0,137.79095 99.2095,0 99.2095,0 0,-137.79095 z m 225.9772,0 0,-137.79092 -101.9655,0 -101.9652,0 0,137.79092 0,137.79095 101.9652,0 101.9655,0 0,-137.79095 z m 611.7917,-2.75581 0,-140.54674 -212.1981,0 -212.198,0 0,140.54674 0,140.54676 212.198,0 212.1981,0 0,-140.54676 z m 231.4888,2.75581 0,-137.79092 -101.9653,0 -101.9653,0 0,137.79092 0,137.79095 101.9653,0 101.9653,0 0,-137.79095 z m 214.9539,0 0,-137.79092 -96.4538,0 -96.4536,0 0,137.79092 0,137.79095 96.4536,0 96.4538,0 0,-137.79095 z m 462.9776,-74.40708 0,-212.19805 -137.791,0 -137.791,0 0,212.19805 0,212.19803 137.791,0 137.791,0 0,-212.19803 z m 292.1167,0 0,-212.19805 -135.0352,0 -135.035,0 0,212.19805 0,212.19803 135.035,0 135.0352,0 0,-212.19803 z m 303.1402,0 0,-212.19805 -140.547,0 -140.5466,0 0,212.19805 0,212.19803 140.5466,0 140.547,0 0,-212.19803 z M 515.41363,529.27078 l 0,-135.03512 -212.19807,0 -212.198054,0 0,135.03512 0,135.03512 212.198054,0 212.19807,0 0,-135.03512 z m 446.44263,0 0,-135.03512 -212.19803,0 -212.19806,0 0,135.03512 0,135.03512 212.19806,0 212.19803,0 0,-135.03512 z m 606.28024,-151.56987 0,-286.605158 -209.4424,0 -209.4421,0 0,286.605158 0,286.60499 209.4421,0 209.4424,0 0,-286.60499 z m 451.9542,151.56987 0,-135.03512 -214.9538,0 -214.9539,0 0,135.03512 0,135.03512 214.9539,0 214.9538,0 0,-135.03512 z m 606.2802,0 0,-135.03512 -209.4422,0 -209.4423,0 0,135.03512 0,135.03512 209.4423,0 209.4422,0 0,-135.03512 z m 451.9544,0 0,-135.03512 -212.1982,0 -212.198,0 0,135.03512 0,135.03512 212.198,0 212.1982,0 0,-135.03512 z m 451.9543,-5.51165 0,-135.03494 -132.2794,0 -132.2793,0 0,135.03494 0,135.03514 132.2793,0 132.2794,0 0,-135.03514 z m 323.9065,-1.3779 1.4754,-133.65704 -148.9123,0 -148.9123,0 0,135.12498 0,135.12513 147.4363,-1.46793 147.4364,-1.46791 1.4753,-133.65723 z m 282.3736,1.3779 0,-135.03494 -129.5236,0 -129.5234,0 0,135.03494 0,135.03514 129.5234,0 129.5236,0 0,-135.03514 z m 462.9776,-220.46533 0,-212.198048 -137.791,0 -137.791,0 0,212.198048 0,212.19789 137.791,0 137.791,0 0,-212.19789 z m 292.1167,0 0,-212.198048 -135.0352,0 -135.035,0 0,212.198048 0,212.19789 135.035,0 135.0352,0 0,-212.19789 z m 303.1402,0 0,-212.198048 -140.547,0 -140.5466,0 0,212.198048 0,212.19789 140.5466,0 140.547,0 0,-212.19789 z m -4679.38057,-71.65127 0,-140.546778 -212.19807,0 -212.198054,0 0,140.546778 0,140.54674 212.198054,0 212.19807,0 0,-140.54674 z m 446.44263,0 0,-140.546778 -212.19803,0 -212.19806,0 0,140.546778 0,140.54674 212.19806,0 212.19803,0 0,-140.54674 z m 1058.23444,0 0,-140.546778 -214.9538,0 -214.9539,0 0,140.546778 0,140.54674 214.9539,0 214.9538,0 0,-140.54674 z m 606.2802,0 0,-140.546778 -209.4422,0 -209.4423,0 0,140.546778 0,140.54674 209.4423,0 209.4422,0 0,-140.54674 z m 451.9544,0 0,-140.546778 -212.1982,0 -212.198,0 0,140.546778 0,140.54674 212.198,0 212.1982,0 0,-140.54674 z m 391.3262,-2.75582 0,-137.790958 -101.9654,0 -101.9652,0 0,137.790958 0,137.79092 101.9652,0 101.9654,0 0,-137.79092 z m 220.4655,0 0,-137.790958 -99.2095,0 -99.2094,0 0,137.790958 0,137.79092 99.2094,0 99.2095,0 0,-137.79092 z m 446.4427,0 0,-137.790958 -209.4422,0 -209.4423,0 0,137.790958 0,137.79092 209.4423,0 209.4422,0 0,-137.79092 z"
       id="path4177"
       inkscape:connector-curvature="0"
       clip-path="url(#clipPath4251)"
       transform="matrix(0.99955289,0,0,0.99955289,-0.00119841,-0.00116672)" />
  </g>
</svg>
